<mxfile host="app.diagrams.net" modified="2021-10-09T08:28:16.632Z" agent="5.0 (Windows NT 10.0; Win64; x64) AppleWebKit/537.36 (KHTML, like Gecko) Chrome/94.0.4606.61 Safari/537.36 Edg/94.0.992.31" etag="r8fbhEr1M5UkQBvpizIw" version="15.5.0" type="github">
  <diagram id="prtHgNgQTEPvFCAcTncT" name="应用市场安装">
    <mxGraphModel dx="1538" dy="417" grid="1" gridSize="10" guides="1" tooltips="1" connect="1" arrows="1" fold="1" page="1" pageScale="1" pageWidth="827" pageHeight="1169" math="0" shadow="0">
      <root>
        <mxCell id="0" />
        <mxCell id="1" parent="0" />
        <mxCell id="4ooSrQ-Gg_ZS1C6c18VP-6" value="API上架/购买" style="swimlane;childLayout=stackLayout;resizeParent=1;resizeParentMax=0;startSize=20;sketch=1;fontColor=#5AA9E6;strokeColor=#FF6392;fillColor=#FFE45E;html=1;" vertex="1" parent="1">
          <mxGeometry x="-20" y="20" width="395" height="890" as="geometry">
            <mxRectangle x="-20" y="20" width="100" height="20" as="alternateBounds" />
          </mxGeometry>
        </mxCell>
        <mxCell id="4ooSrQ-Gg_ZS1C6c18VP-7" value="应用市场MIP" style="swimlane;startSize=20;sketch=1;fontColor=#5AA9E6;strokeColor=#FF6392;fillColor=#FFE45E;html=1;swimlaneFillColor=none;" vertex="1" parent="4ooSrQ-Gg_ZS1C6c18VP-6">
          <mxGeometry y="20" width="130" height="870" as="geometry">
            <mxRectangle y="20" width="30" height="870" as="alternateBounds" />
          </mxGeometry>
        </mxCell>
        <mxCell id="4ooSrQ-Gg_ZS1C6c18VP-13" style="edgeStyle=orthogonalEdgeStyle;curved=0;rounded=1;sketch=1;orthogonalLoop=1;jettySize=auto;html=1;exitX=0.5;exitY=1;exitDx=0;exitDy=0;exitPerimeter=0;entryX=0.5;entryY=0;entryDx=0;entryDy=0;fontColor=#5AA9E6;startSize=20;strokeColor=#FF6392;fillColor=#FFE45E;" edge="1" parent="4ooSrQ-Gg_ZS1C6c18VP-7" source="4ooSrQ-Gg_ZS1C6c18VP-11" target="4ooSrQ-Gg_ZS1C6c18VP-12">
          <mxGeometry relative="1" as="geometry" />
        </mxCell>
        <mxCell id="4ooSrQ-Gg_ZS1C6c18VP-11" value="" style="strokeWidth=2;html=1;shape=mxgraph.flowchart.start_2;whiteSpace=wrap;sketch=1;fontColor=#5AA9E6;startSize=20;fillColor=#FFE45E;strokeColor=#FF6392;" vertex="1" parent="4ooSrQ-Gg_ZS1C6c18VP-7">
          <mxGeometry x="42.5" y="30" width="45" height="40" as="geometry" />
        </mxCell>
        <mxCell id="4ooSrQ-Gg_ZS1C6c18VP-22" style="edgeStyle=orthogonalEdgeStyle;curved=0;rounded=1;sketch=1;orthogonalLoop=1;jettySize=auto;html=1;entryX=0.5;entryY=0;entryDx=0;entryDy=0;fontColor=#5AA9E6;startSize=20;strokeColor=#FF6392;fillColor=#FFE45E;" edge="1" parent="4ooSrQ-Gg_ZS1C6c18VP-7" source="4ooSrQ-Gg_ZS1C6c18VP-12" target="4ooSrQ-Gg_ZS1C6c18VP-21">
          <mxGeometry relative="1" as="geometry" />
        </mxCell>
        <mxCell id="4ooSrQ-Gg_ZS1C6c18VP-12" value="创建API分组" style="whiteSpace=wrap;html=1;sketch=1;fontColor=#5AA9E6;startSize=20;strokeColor=#FF6392;fillColor=#FFE45E;" vertex="1" parent="4ooSrQ-Gg_ZS1C6c18VP-7">
          <mxGeometry x="27.5" y="100" width="75" height="30" as="geometry" />
        </mxCell>
        <mxCell id="4ooSrQ-Gg_ZS1C6c18VP-21" value="创建API" style="whiteSpace=wrap;html=1;sketch=1;fontColor=#5AA9E6;startSize=20;strokeColor=#FF6392;fillColor=#FFE45E;" vertex="1" parent="4ooSrQ-Gg_ZS1C6c18VP-7">
          <mxGeometry x="27.5" y="180" width="75" height="30" as="geometry" />
        </mxCell>
        <mxCell id="4ooSrQ-Gg_ZS1C6c18VP-53" value="API查询接口" style="shape=process;whiteSpace=wrap;html=1;backgroundOutline=1;rounded=0;sketch=1;fontColor=#5AA9E6;strokeColor=#FF6392;fillColor=#FFE45E;" vertex="1" parent="4ooSrQ-Gg_ZS1C6c18VP-7">
          <mxGeometry x="20" y="535" width="93.75" height="20" as="geometry" />
        </mxCell>
        <mxCell id="4ooSrQ-Gg_ZS1C6c18VP-8" value="应用市场" style="swimlane;startSize=20;sketch=1;fontColor=#5AA9E6;strokeColor=#FF6392;fillColor=#FFE45E;html=1;" vertex="1" parent="4ooSrQ-Gg_ZS1C6c18VP-6">
          <mxGeometry x="130" y="20" width="130" height="870" as="geometry">
            <mxRectangle x="130" y="20" width="30" height="870" as="alternateBounds" />
          </mxGeometry>
        </mxCell>
        <mxCell id="4ooSrQ-Gg_ZS1C6c18VP-26" style="edgeStyle=orthogonalEdgeStyle;curved=0;rounded=1;sketch=1;orthogonalLoop=1;jettySize=auto;html=1;entryX=0.5;entryY=0;entryDx=0;entryDy=0;fontColor=#5AA9E6;startSize=20;strokeColor=#FF6392;fillColor=#FFE45E;" edge="1" parent="4ooSrQ-Gg_ZS1C6c18VP-8" source="4ooSrQ-Gg_ZS1C6c18VP-23" target="4ooSrQ-Gg_ZS1C6c18VP-25">
          <mxGeometry relative="1" as="geometry" />
        </mxCell>
        <mxCell id="4ooSrQ-Gg_ZS1C6c18VP-23" value="获取API/分组" style="whiteSpace=wrap;html=1;sketch=1;fontColor=#5AA9E6;startSize=20;strokeColor=#FF6392;fillColor=#FFE45E;" vertex="1" parent="4ooSrQ-Gg_ZS1C6c18VP-8">
          <mxGeometry x="22.5" y="110" width="77.5" height="30" as="geometry" />
        </mxCell>
        <mxCell id="4ooSrQ-Gg_ZS1C6c18VP-28" style="edgeStyle=orthogonalEdgeStyle;curved=0;rounded=1;sketch=1;orthogonalLoop=1;jettySize=auto;html=1;entryX=0.5;entryY=0;entryDx=0;entryDy=0;fontColor=#5AA9E6;startSize=20;strokeColor=#FF6392;fillColor=#FFE45E;" edge="1" parent="4ooSrQ-Gg_ZS1C6c18VP-8" source="4ooSrQ-Gg_ZS1C6c18VP-25" target="4ooSrQ-Gg_ZS1C6c18VP-27">
          <mxGeometry relative="1" as="geometry" />
        </mxCell>
        <mxCell id="4ooSrQ-Gg_ZS1C6c18VP-25" value="绑定应用" style="whiteSpace=wrap;html=1;sketch=1;fontColor=#5AA9E6;startSize=20;strokeColor=#FF6392;fillColor=#FFE45E;" vertex="1" parent="4ooSrQ-Gg_ZS1C6c18VP-8">
          <mxGeometry x="22.5" y="170" width="75" height="40" as="geometry" />
        </mxCell>
        <mxCell id="4ooSrQ-Gg_ZS1C6c18VP-37" style="edgeStyle=orthogonalEdgeStyle;curved=0;rounded=1;sketch=1;orthogonalLoop=1;jettySize=auto;html=1;entryX=0.5;entryY=0;entryDx=0;entryDy=0;fontSize=11;fontColor=#5AA9E6;startSize=20;strokeColor=#FF6392;fillColor=#FFE45E;dashed=1;dashPattern=1 4;" edge="1" parent="4ooSrQ-Gg_ZS1C6c18VP-8" source="4ooSrQ-Gg_ZS1C6c18VP-27" target="4ooSrQ-Gg_ZS1C6c18VP-32">
          <mxGeometry relative="1" as="geometry" />
        </mxCell>
        <mxCell id="4ooSrQ-Gg_ZS1C6c18VP-27" value="上架/售卖" style="whiteSpace=wrap;html=1;sketch=1;fontColor=#5AA9E6;startSize=20;strokeColor=#FF6392;fillColor=#FFE45E;" vertex="1" parent="4ooSrQ-Gg_ZS1C6c18VP-8">
          <mxGeometry x="27.5" y="240" width="75" height="40" as="geometry" />
        </mxCell>
        <mxCell id="4ooSrQ-Gg_ZS1C6c18VP-36" style="edgeStyle=orthogonalEdgeStyle;curved=0;rounded=1;sketch=1;orthogonalLoop=1;jettySize=auto;html=1;entryX=0.45;entryY=0.033;entryDx=0;entryDy=0;entryPerimeter=0;fontSize=11;fontColor=#5AA9E6;startSize=20;strokeColor=#FF6392;fillColor=#FFE45E;" edge="1" parent="4ooSrQ-Gg_ZS1C6c18VP-8" source="4ooSrQ-Gg_ZS1C6c18VP-32" target="4ooSrQ-Gg_ZS1C6c18VP-35">
          <mxGeometry relative="1" as="geometry" />
        </mxCell>
        <mxCell id="4ooSrQ-Gg_ZS1C6c18VP-32" value="下单" style="shape=hexagon;perimeter=hexagonPerimeter2;whiteSpace=wrap;html=1;fixedSize=1;sketch=1;fontColor=#5AA9E6;startSize=20;strokeColor=#FF6392;fillColor=#FFE45E;" vertex="1" parent="4ooSrQ-Gg_ZS1C6c18VP-8">
          <mxGeometry x="37.5" y="320" width="60" height="40" as="geometry" />
        </mxCell>
        <mxCell id="4ooSrQ-Gg_ZS1C6c18VP-33" value="" style="shape=actor;whiteSpace=wrap;html=1;sketch=1;fontColor=#5AA9E6;startSize=20;strokeColor=#FF6392;fillColor=#FFE45E;" vertex="1" parent="4ooSrQ-Gg_ZS1C6c18VP-8">
          <mxGeometry x="10" y="325" width="20" height="30" as="geometry" />
        </mxCell>
        <mxCell id="4ooSrQ-Gg_ZS1C6c18VP-35" value="确认购买" style="whiteSpace=wrap;html=1;sketch=1;fontSize=11;fontColor=#5AA9E6;startSize=20;strokeColor=#FF6392;fillColor=#FFE45E;" vertex="1" parent="4ooSrQ-Gg_ZS1C6c18VP-8">
          <mxGeometry x="40" y="400" width="60" height="30" as="geometry" />
        </mxCell>
        <mxCell id="4ooSrQ-Gg_ZS1C6c18VP-45" value="订单信息接口" style="shape=process;whiteSpace=wrap;html=1;backgroundOutline=1;rounded=0;sketch=1;fontColor=#5AA9E6;strokeColor=#FF6392;fillColor=#FFE45E;" vertex="1" parent="4ooSrQ-Gg_ZS1C6c18VP-8">
          <mxGeometry x="16.25" y="490" width="93.75" height="20" as="geometry" />
        </mxCell>
        <mxCell id="4ooSrQ-Gg_ZS1C6c18VP-62" value="回调接口" style="shape=process;whiteSpace=wrap;html=1;backgroundOutline=1;rounded=0;sketch=1;fontColor=#5AA9E6;strokeColor=#FF6392;fillColor=#FFE45E;" vertex="1" parent="4ooSrQ-Gg_ZS1C6c18VP-8">
          <mxGeometry x="6.25" y="690" width="93.75" height="20" as="geometry" />
        </mxCell>
        <mxCell id="4ooSrQ-Gg_ZS1C6c18VP-9" value="客户MIP" style="swimlane;startSize=20;sketch=1;fontColor=#5AA9E6;strokeColor=#FF6392;fillColor=#FFE45E;html=1;" vertex="1" parent="4ooSrQ-Gg_ZS1C6c18VP-6">
          <mxGeometry x="260" y="20" width="135" height="870" as="geometry">
            <mxRectangle x="260" y="20" width="30" height="870" as="alternateBounds" />
          </mxGeometry>
        </mxCell>
        <mxCell id="4ooSrQ-Gg_ZS1C6c18VP-38" value="" style="shape=actor;whiteSpace=wrap;html=1;sketch=1;fontColor=#5AA9E6;startSize=20;strokeColor=#FF6392;fillColor=#FFE45E;" vertex="1" parent="4ooSrQ-Gg_ZS1C6c18VP-9">
          <mxGeometry x="20" y="140" width="20" height="30" as="geometry" />
        </mxCell>
        <mxCell id="4ooSrQ-Gg_ZS1C6c18VP-43" style="edgeStyle=orthogonalEdgeStyle;curved=0;rounded=1;sketch=1;orthogonalLoop=1;jettySize=auto;html=1;entryX=0.571;entryY=-0.083;entryDx=0;entryDy=0;entryPerimeter=0;fontSize=11;fontColor=#5AA9E6;startSize=20;strokeColor=#FF6392;fillColor=#FFE45E;" edge="1" parent="4ooSrQ-Gg_ZS1C6c18VP-9" source="4ooSrQ-Gg_ZS1C6c18VP-41" target="4ooSrQ-Gg_ZS1C6c18VP-42">
          <mxGeometry relative="1" as="geometry" />
        </mxCell>
        <mxCell id="4ooSrQ-Gg_ZS1C6c18VP-41" value="准备安装" style="shape=hexagon;perimeter=hexagonPerimeter2;whiteSpace=wrap;html=1;fixedSize=1;sketch=1;fontColor=#5AA9E6;startSize=20;strokeColor=#FF6392;fillColor=#FFE45E;" vertex="1" parent="4ooSrQ-Gg_ZS1C6c18VP-9">
          <mxGeometry x="50" y="140" width="60" height="40" as="geometry" />
        </mxCell>
        <mxCell id="4ooSrQ-Gg_ZS1C6c18VP-42" value="录入授权码" style="whiteSpace=wrap;html=1;sketch=1;fontSize=11;fontColor=#5AA9E6;startSize=20;strokeColor=#FF6392;fillColor=#FFE45E;" vertex="1" parent="4ooSrQ-Gg_ZS1C6c18VP-9">
          <mxGeometry x="40" y="220" width="70" height="30" as="geometry" />
        </mxCell>
        <mxCell id="4ooSrQ-Gg_ZS1C6c18VP-51" style="edgeStyle=orthogonalEdgeStyle;curved=0;rounded=1;sketch=1;orthogonalLoop=1;jettySize=auto;html=1;entryX=0.5;entryY=0;entryDx=0;entryDy=0;fontColor=#5AA9E6;strokeColor=#FF6392;fillColor=#FFE45E;" edge="1" parent="4ooSrQ-Gg_ZS1C6c18VP-9" source="4ooSrQ-Gg_ZS1C6c18VP-48" target="4ooSrQ-Gg_ZS1C6c18VP-50">
          <mxGeometry relative="1" as="geometry">
            <Array as="points">
              <mxPoint x="95" y="320" />
              <mxPoint x="95" y="320" />
            </Array>
          </mxGeometry>
        </mxCell>
        <mxCell id="4ooSrQ-Gg_ZS1C6c18VP-48" value="选择订单信息" style="whiteSpace=wrap;html=1;rounded=0;sketch=1;fontColor=#5AA9E6;strokeColor=#FF6392;fillColor=#FFE45E;" vertex="1" parent="4ooSrQ-Gg_ZS1C6c18VP-9">
          <mxGeometry x="40" y="290" width="80" height="20" as="geometry" />
        </mxCell>
        <mxCell id="4ooSrQ-Gg_ZS1C6c18VP-50" value="API分组" style="whiteSpace=wrap;html=1;rounded=0;sketch=1;fontColor=#5AA9E6;strokeColor=#FF6392;fillColor=#FFE45E;" vertex="1" parent="4ooSrQ-Gg_ZS1C6c18VP-9">
          <mxGeometry x="70" y="340" width="50" height="20" as="geometry" />
        </mxCell>
        <mxCell id="4ooSrQ-Gg_ZS1C6c18VP-58" style="edgeStyle=orthogonalEdgeStyle;curved=0;rounded=1;sketch=1;orthogonalLoop=1;jettySize=auto;html=1;entryX=0.575;entryY=0.05;entryDx=0;entryDy=0;entryPerimeter=0;fontColor=#5AA9E6;strokeColor=#FF6392;fillColor=#FFE45E;" edge="1" parent="4ooSrQ-Gg_ZS1C6c18VP-9" source="4ooSrQ-Gg_ZS1C6c18VP-55" target="4ooSrQ-Gg_ZS1C6c18VP-57">
          <mxGeometry relative="1" as="geometry" />
        </mxCell>
        <mxCell id="4ooSrQ-Gg_ZS1C6c18VP-55" value="API元数据" style="whiteSpace=wrap;html=1;rounded=0;sketch=1;fontColor=#5AA9E6;strokeColor=#FF6392;fillColor=#FFE45E;" vertex="1" parent="4ooSrQ-Gg_ZS1C6c18VP-9">
          <mxGeometry x="35" y="530" width="90" height="30" as="geometry" />
        </mxCell>
        <mxCell id="4ooSrQ-Gg_ZS1C6c18VP-57" value="API导入" style="whiteSpace=wrap;html=1;rounded=0;sketch=1;fontColor=#5AA9E6;strokeColor=#FF6392;fillColor=#FFE45E;" vertex="1" parent="4ooSrQ-Gg_ZS1C6c18VP-9">
          <mxGeometry x="35" y="610" width="80" height="30" as="geometry" />
        </mxCell>
        <mxCell id="4ooSrQ-Gg_ZS1C6c18VP-59" value="End" style="strokeWidth=2;html=1;shape=mxgraph.flowchart.terminator;whiteSpace=wrap;rounded=0;sketch=1;fontColor=#5AA9E6;fillColor=#FFE45E;" vertex="1" parent="4ooSrQ-Gg_ZS1C6c18VP-9">
          <mxGeometry x="30" y="770" width="85" height="30" as="geometry" />
        </mxCell>
        <mxCell id="4ooSrQ-Gg_ZS1C6c18VP-24" style="edgeStyle=orthogonalEdgeStyle;curved=0;rounded=1;sketch=1;orthogonalLoop=1;jettySize=auto;html=1;entryX=0.427;entryY=0.025;entryDx=0;entryDy=0;entryPerimeter=0;fontColor=#5AA9E6;startSize=20;strokeColor=#FF6392;fillColor=#FFE45E;" edge="1" parent="4ooSrQ-Gg_ZS1C6c18VP-6" source="4ooSrQ-Gg_ZS1C6c18VP-21" target="4ooSrQ-Gg_ZS1C6c18VP-23">
          <mxGeometry relative="1" as="geometry" />
        </mxCell>
        <mxCell id="4ooSrQ-Gg_ZS1C6c18VP-47" style="edgeStyle=orthogonalEdgeStyle;curved=0;rounded=1;sketch=1;orthogonalLoop=1;jettySize=auto;html=1;fontColor=#5AA9E6;strokeColor=#FF6392;fillColor=#FFE45E;entryX=0.477;entryY=-0.2;entryDx=0;entryDy=0;entryPerimeter=0;dashed=1;" edge="1" parent="4ooSrQ-Gg_ZS1C6c18VP-6" source="4ooSrQ-Gg_ZS1C6c18VP-42" target="4ooSrQ-Gg_ZS1C6c18VP-45">
          <mxGeometry relative="1" as="geometry">
            <mxPoint x="192" y="500" as="targetPoint" />
            <Array as="points">
              <mxPoint x="270" y="255" />
              <mxPoint x="270" y="480" />
              <mxPoint x="192" y="480" />
              <mxPoint x="192" y="506" />
            </Array>
          </mxGeometry>
        </mxCell>
        <mxCell id="4ooSrQ-Gg_ZS1C6c18VP-61" value="调用订单信息接口" style="edgeLabel;html=1;align=center;verticalAlign=middle;resizable=0;points=[];fontColor=#5AA9E6;textDirection=rtl;" vertex="1" connectable="0" parent="4ooSrQ-Gg_ZS1C6c18VP-47">
          <mxGeometry x="-0.3251" y="3" relative="1" as="geometry">
            <mxPoint as="offset" />
          </mxGeometry>
        </mxCell>
        <mxCell id="4ooSrQ-Gg_ZS1C6c18VP-49" style="edgeStyle=orthogonalEdgeStyle;curved=0;rounded=1;sketch=1;orthogonalLoop=1;jettySize=auto;html=1;fontColor=#5AA9E6;strokeColor=#FF6392;fillColor=#FFE45E;entryX=0.188;entryY=1.15;entryDx=0;entryDy=0;entryPerimeter=0;dashed=1;" edge="1" parent="4ooSrQ-Gg_ZS1C6c18VP-6" source="4ooSrQ-Gg_ZS1C6c18VP-45" target="4ooSrQ-Gg_ZS1C6c18VP-48">
          <mxGeometry relative="1" as="geometry">
            <mxPoint x="220" y="600" as="targetPoint" />
          </mxGeometry>
        </mxCell>
        <mxCell id="4ooSrQ-Gg_ZS1C6c18VP-54" style="edgeStyle=orthogonalEdgeStyle;curved=0;rounded=1;sketch=1;orthogonalLoop=1;jettySize=auto;html=1;entryX=0.75;entryY=0;entryDx=0;entryDy=0;fontColor=#5AA9E6;strokeColor=#FF6392;fillColor=#FFE45E;dashed=1;" edge="1" parent="4ooSrQ-Gg_ZS1C6c18VP-6" source="4ooSrQ-Gg_ZS1C6c18VP-50" target="4ooSrQ-Gg_ZS1C6c18VP-53">
          <mxGeometry relative="1" as="geometry">
            <Array as="points">
              <mxPoint x="340" y="540" />
              <mxPoint x="90" y="540" />
            </Array>
          </mxGeometry>
        </mxCell>
        <mxCell id="4ooSrQ-Gg_ZS1C6c18VP-56" style="edgeStyle=orthogonalEdgeStyle;curved=0;rounded=1;sketch=1;orthogonalLoop=1;jettySize=auto;html=1;entryX=0;entryY=0.5;entryDx=0;entryDy=0;dashed=1;fontColor=#5AA9E6;strokeColor=#FF6392;fillColor=#FFE45E;" edge="1" parent="4ooSrQ-Gg_ZS1C6c18VP-6" source="4ooSrQ-Gg_ZS1C6c18VP-53" target="4ooSrQ-Gg_ZS1C6c18VP-55">
          <mxGeometry relative="1" as="geometry" />
        </mxCell>
        <mxCell id="4ooSrQ-Gg_ZS1C6c18VP-63" style="edgeStyle=orthogonalEdgeStyle;curved=0;rounded=1;sketch=1;orthogonalLoop=1;jettySize=auto;html=1;fontColor=#5AA9E6;strokeColor=#FF6392;fillColor=#FFE45E;dashed=1;" edge="1" parent="4ooSrQ-Gg_ZS1C6c18VP-6" source="4ooSrQ-Gg_ZS1C6c18VP-57" target="4ooSrQ-Gg_ZS1C6c18VP-62">
          <mxGeometry relative="1" as="geometry" />
        </mxCell>
        <mxCell id="4ooSrQ-Gg_ZS1C6c18VP-64" style="edgeStyle=orthogonalEdgeStyle;curved=0;rounded=1;sketch=1;orthogonalLoop=1;jettySize=auto;html=1;entryX=0;entryY=0.5;entryDx=0;entryDy=0;entryPerimeter=0;fontColor=#5AA9E6;strokeColor=#FF6392;fillColor=#FFE45E;dashed=1;" edge="1" parent="4ooSrQ-Gg_ZS1C6c18VP-6" source="4ooSrQ-Gg_ZS1C6c18VP-62" target="4ooSrQ-Gg_ZS1C6c18VP-59">
          <mxGeometry relative="1" as="geometry">
            <Array as="points">
              <mxPoint x="183" y="805" />
            </Array>
          </mxGeometry>
        </mxCell>
        <mxCell id="4ooSrQ-Gg_ZS1C6c18VP-34" value="一线" style="text;html=1;align=center;verticalAlign=middle;resizable=0;points=[];autosize=1;strokeColor=none;fillColor=none;fontSize=11;fontColor=#5AA9E6;" vertex="1" parent="1">
          <mxGeometry x="110" y="400" width="40" height="20" as="geometry" />
        </mxCell>
        <mxCell id="4ooSrQ-Gg_ZS1C6c18VP-39" value="一线" style="text;html=1;align=center;verticalAlign=middle;resizable=0;points=[];autosize=1;strokeColor=none;fillColor=none;fontSize=11;fontColor=#5AA9E6;" vertex="1" parent="1">
          <mxGeometry x="250" y="220" width="40" height="20" as="geometry" />
        </mxCell>
      </root>
    </mxGraphModel>
  </diagram>
</mxfile>
